<?xml version="1.0" standalone="no"?><!DOCTYPE svg PUBLIC "-//W3C//DTD SVG 1.1//EN" "http://www.w3.org/Graphics/SVG/1.1/DTD/svg11.dtd"><svg t="1526285149100" class="icon" style="" viewBox="0 0 1092 1024" version="1.1" xmlns="http://www.w3.org/2000/svg" p-id="7524" xmlns:xlink="http://www.w3.org/1999/xlink" width="213.28125" height="200"><defs><style type="text/css"></style></defs><path d="M810.287407 1024H281.961523a546.073265 546.073265 0 1 1 528.325884 0zM546.124465 136.630944a408.940617 408.940617 0 0 0-220.135785 753.990661A63.958831 63.958831 0 0 1 341.346991 887.481684h409.554949a63.958831 63.958831 0 0 1 15.35831 3.139921A408.940617 408.940617 0 0 0 546.124465 136.630944z m117.883566 410.169281A134.743578 134.743578 0 0 1 682.642782 614.445051a136.518316 136.518316 0 1 1-136.518317-136.518316l77.405886-134.060987a68.259158 68.259158 0 1 1 118.224862 68.259158z" p-id="7525" fill="#1296db"></path></svg>