<?xml version="1.0" standalone="no"?><!DOCTYPE svg PUBLIC "-//W3C//DTD SVG 1.1//EN" "http://www.w3.org/Graphics/SVG/1.1/DTD/svg11.dtd"><svg t="1525920674238" class="icon" style="" viewBox="0 0 1024 1024" version="1.1" xmlns="http://www.w3.org/2000/svg" p-id="5864" xmlns:xlink="http://www.w3.org/1999/xlink" width="200" height="200"><defs><style type="text/css"></style></defs><path d="M155.364 337.096l-87.54 29.344v-138.924h57.608v69.098l29.932 40.482z m211.824-109.58h-121.96l0.47 77.802 121.49-77.802z m590.29 178.212v-178.212H601l15.396 35.758h-63.942v27.03l-32.1-27.03h-81.346l-85.35 86.78 56.648 74.554 184.39-69.942 169.226 137.876 93.466 22.868 14.406 36.788-166.11 14.904-8.5-23.172-22.44 8.766-92.278-77.972-169.694 110.194 26.408 211.568H1023V405.728h-65.522zM309.708 758.426L266.54 579.56l-31.796-8.676-86.186-129.788-46.584 0.008v37.83l-20.298-15.916v55.376l-47.732-20.324v-92.344H1v390.756h336.176l-5.078-28.76-22.39-9.296z" fill="#1296db" p-id="5865"></path></svg>