<?xml version="1.0" standalone="no"?><!DOCTYPE svg PUBLIC "-//W3C//DTD SVG 1.1//EN" "http://www.w3.org/Graphics/SVG/1.1/DTD/svg11.dtd"><svg t="1525857820190" class="icon" style="" viewBox="0 0 1024 1024" version="1.1" xmlns="http://www.w3.org/2000/svg" p-id="5477" xmlns:xlink="http://www.w3.org/1999/xlink" width="200" height="200"><defs><style type="text/css"></style></defs><path d="M740.502 288.886c-9.175-9.126-21.748-13.739-34.321-13.739s-25.146 4.611-34.321 13.739l-111.314 111.314v-325.107c0-26.811-21.735-48.545-48.545-48.545-26.811 0-48.545 21.735-48.545 48.545v325.107l-111.314-111.314c-8.768-8.817-20.908-14.273-34.321-14.273s-25.553 5.457-34.319 14.272c-8.784 8.787-14.215 20.921-14.215 34.323 0 13.403 5.431 25.537 14.213 34.321l228.502 227.289 228.598-227.386c8.724-8.774 14.116-20.869 14.116-34.224 0-13.403-5.431-25.537-14.213-34.322zM948.275 706.181c0.025-0.573 0.038-1.245 0.038-1.921 0-4.783-0.705-9.402-2.019-13.757l-97.004-290.934c-6.589-19.453-24.683-33.205-45.988-33.205-0.012 0-0.023 0-0.035 0h-10.629c-4.563 9.126-10.194 17.865-17.817 25.486l-71.943 71.604h65.439l80.925 242.725h-674.438l80.925-242.725h65.439l-71.993-71.604c-12.005-12.269-20.725-27.799-24.708-45.139l-3.739 19.653c-0.011 0-0.021 0-0.033 0-21.305 0-39.397 13.753-45.887 32.864l-97.191 291.613c-1.227 4.018-1.932 8.637-1.932 13.42 0 0.676 0.014 1.347 0.042 2.016-0.634-0.096-0.634 242.63-0.634 242.63 0 26.811 21.735 48.545 48.545 48.545h776.723c26.811 0 48.545-21.735 48.545-48.545s0-242.725-0.631-242.725z" fill="#1296db" p-id="5478"></path></svg>