<?xml version="1.0" standalone="no"?><!DOCTYPE svg PUBLIC "-//W3C//DTD SVG 1.1//EN" "http://www.w3.org/Graphics/SVG/1.1/DTD/svg11.dtd"><svg t="1526373004690" class="icon" style="" viewBox="0 0 1024 1024" version="1.1" xmlns="http://www.w3.org/2000/svg" p-id="2269" xmlns:xlink="http://www.w3.org/1999/xlink" width="200" height="200"><defs><style type="text/css"></style></defs><path d="M836.855172 0v217.158621h132.413794zM395.475862 158.896552c-3.531034-3.531034-7.062069-7.062069-12.358621-8.827586-1.765517 0-7.062069-1.765517-21.186207-1.765518h-40.606896v52.965518h40.606896c14.124138 0 22.951724-1.765517 28.248276-7.062069 5.296552-5.296552 7.062069-10.593103 7.062069-19.42069 1.765517-5.296552 0-10.593103-1.765517-15.889655z" fill="#1296db" p-id="2270"></path><path d="M971.034483 296.606897V247.172414h-167.724138V0H54.731034v1024H971.034483V296.606897zM617.931034 162.427586c7.062069-15.889655 19.42069-28.248276 33.544828-35.310345 14.124138-7.062069 30.013793-12.358621 49.434483-12.35862 14.124138 0 26.482759 1.765517 37.075862 7.062069 10.593103 5.296552 19.42069 10.593103 26.482759 19.420689 7.062069 8.827586 10.593103 17.655172 14.124137 31.779311l1.765518 5.296551-31.779311 8.827587-1.765517-5.296552c-1.765517-8.827586-5.296552-14.124138-8.827586-19.42069-3.531034-3.531034-8.827586-8.827586-14.124138-10.593103-7.062069-3.531034-14.124138-3.531034-22.951724-3.531035-10.593103 0-19.42069 1.765517-26.482759 5.296552-7.062069 3.531034-12.358621 7.062069-17.655172 12.358621l-10.593104 15.889655c-3.531034 10.593103-7.062069 21.186207-7.062069 33.544827 0 14.124138 1.765517 26.482759 7.062069 37.075863 5.296552 8.827586 12.358621 15.889655 21.186207 21.186206 17.655172 8.827586 38.841379 8.827586 58.262069 1.765518 7.062069-3.531034 14.124138-7.062069 19.42069-10.593104v-24.717241h-51.2v-31.779311h84.744827V282.482759l-1.765517 1.765517c-12.358621 8.827586-24.717241 15.889655-37.075862 21.186207-12.358621 5.296552-26.482759 7.062069-38.841379 7.062069-17.655172 0-35.310345-3.531034-49.434483-12.358621-15.889655-7.062069-26.482759-19.42069-33.544828-35.310345-7.062069-14.124138-10.593103-31.77931-10.593103-49.434483 0-21.186207 3.531034-37.075862 10.593103-52.965517z m-165.95862-44.137931h137.710345v31.779311h-104.165518V194.206897H582.62069v31.77931h-97.103449v49.434483h109.462069v31.77931h-143.006896V118.289655z m-164.193104 0h72.386207c12.358621 0 21.186207 0 28.248276 1.765517 8.827586 1.765517 17.655172 5.296552 24.717241 8.827587 7.062069 5.296552 12.358621 10.593103 15.889656 19.420689 3.531034 8.827586 5.296552 17.655172 5.296551 26.482759 0 15.889655-5.296552 30.013793-15.889655 42.372414-10.593103 12.358621-28.248276 17.655172-56.496552 17.655172h-40.606896v72.386207h-33.544828V118.289655z m-203.034482 0h44.137931L171.255172 247.172414c1.765517 3.531034 1.765517 7.062069 3.531035 10.593103 1.765517-3.531034 3.531034-8.827586 3.531034-12.35862l44.137931-127.117242h40.606897v187.144828H229.517241v-121.82069l-42.372413 121.82069H158.896552l-42.372414-123.586207v123.586207H84.744828V118.289655zM953.37931 1006.344828H72.386207V388.413793H953.37931v617.931035z" fill="#1296db" p-id="2271"></path><path d="M789.186207 573.793103l-165.958621 72.386207v-104.165517H236.57931v312.496552h386.648276V741.517241l165.958621 82.979311z" fill="#1296db" p-id="2272"></path></svg>