<?xml version="1.0" standalone="no"?><!DOCTYPE svg PUBLIC "-//W3C//DTD SVG 1.1//EN" "http://www.w3.org/Graphics/SVG/1.1/DTD/svg11.dtd"><svg t="1525687435624" class="icon" style="" viewBox="0 0 1024 1024" version="1.1" xmlns="http://www.w3.org/2000/svg" p-id="1494" xmlns:xlink="http://www.w3.org/1999/xlink" width="200" height="200"><defs><style type="text/css"></style></defs><path d="M992 57.6H38.4c-25.6 0-38.4 12.8-38.4 32v633.6c0 19.2 12.8 32 32 32h147.2c12.8 0 19.2-6.4 25.6-12.8l192-243.2L492.8 576c12.8 12.8 32 12.8 44.8 0l172.8-192c19.2 12.8 38.4 19.2 57.6 19.2 64 0 108.8-51.2 108.8-115.2s-51.2-115.2-108.8-115.2c-64 0-108.8 51.2-108.8 115.2 0 12.8 0 32 6.4 44.8L512 499.2 416 428.8c-6.4-6.4-12.8-12.8-25.6-12.8-6.4 0-12.8 6.4-19.2 12.8l-204.8 256H70.4V128H960v563.2H473.6c-19.2 0-32 12.8-32 32V896H236.8c-19.2 0-32 12.8-32 32s12.8 32 32 32H704c19.2 0 32-12.8 32-32s-12.8-32-32-32H512v-134.4h480c19.2 0 32-12.8 32-32v-640c0-19.2-12.8-32-32-32z" fill="#1296db" p-id="1495"></path></svg>