<?xml version="1.0" standalone="no"?><!DOCTYPE svg PUBLIC "-//W3C//DTD SVG 1.1//EN" "http://www.w3.org/Graphics/SVG/1.1/DTD/svg11.dtd"><svg t="1526284680592" class="icon" style="" viewBox="0 0 1024 1024" version="1.1" xmlns="http://www.w3.org/2000/svg" p-id="6777" xmlns:xlink="http://www.w3.org/1999/xlink" width="200" height="200"><defs><style type="text/css"></style></defs><path d="M782.5408 258.2528 416.768 653.5168 876.544 441.5488C862.8224 371.3024 829.6448 308.224 782.5408 258.2528zM511.1808 140.4928c-50.5856 0-98.9184 10.24-142.9504 28.4672l-49.152 413.4912 245.1456-438.272C547.0208 141.9264 529.2032 140.4928 511.1808 140.4928zM880.0256 464.2816l-435.4048 243.712L853.1968 659.456c19.456-45.056 30.1056-94.6176 30.1056-146.8416C883.3024 496.2304 882.0736 480.0512 880.0256 464.2816zM719.4624 821.0432c48.7424-32.9728 89.088-77.2096 117.5552-128.8192l-382.976 75.9808L719.4624 821.0432zM586.752 148.2752 373.5552 610.304 769.024 244.5312C719.4624 196.8128 656.7936 162.816 586.752 148.2752zM542.3104 883.5072c41.1648-3.4816 80.4864-13.5168 116.736-29.2864l-214.4256-25.3952L542.3104 883.5072zM172.032 359.6288C155.2384 396.6976 144.384 437.0432 140.6976 479.232l57.7536 103.2192L172.032 359.6288zM336.0768 184.32C283.4432 212.3776 238.592 252.7232 204.8 301.4656L258.8672 573.0304 336.0768 184.32z" p-id="6778" fill="#1296db"></path></svg>