<?xml version="1.0" standalone="no"?><!DOCTYPE svg PUBLIC "-//W3C//DTD SVG 1.1//EN" "http://www.w3.org/Graphics/SVG/1.1/DTD/svg11.dtd"><svg t="1525941150664" class="icon" style="" viewBox="0 0 1024 1024" version="1.1" xmlns="http://www.w3.org/2000/svg" p-id="6581" xmlns:xlink="http://www.w3.org/1999/xlink" width="200" height="200"><defs><style type="text/css"></style></defs><path d="M761.0624 817.15712l-123.6992 121.35936-125.35296-121.35936-127.06816 121.35936-125.71648-121.35936L134.8608 938.51648 134.8608 53.6832l754.2784 0 0 884.83328L761.0624 817.15712zM828.8 114.36544 195.20512 114.36544l0 680.70912 21.98528-21.45792 41.78432-40.7808 42.0352 40.56576 84.14208 81.21344 85.28384-81.43872 41.85088-39.94624 41.56416 40.22784 83.23072 80.55808 81.84832-80.2816 41.41056-40.64256 42.112 39.90528 26.34752 24.96L828.8 114.36544zM731.45856 198.5536l37.27872 0 0 216.39168-37.27872 0L731.45856 198.5536zM635.82208 393.80992c-17.6896 15.04256-37.8624 22.56384-60.55936 22.56384-31.04768 0-55.3984-10.39872-73.0624-31.16544-17.67936-20.79232-26.5216-49.08032-26.5216-84.92032 0-31.03744 9.25184-57.42592 27.76576-79.16544 18.49344-21.7344 43.17696-32.59904 73.96352-32.59904 24.13056 0 43.90912 6.57408 59.31008 19.70688 15.4112 13.14304 27.26912 33.09056 35.63008 59.83744l-38.31808 0c-10.99776-28.89728-30.35136-43.36128-58.05056-43.36128-18.14016 0-33.18784 7.11168-45.13792 21.31968-11.9296 14.20288-17.89952 32.96256-17.89952 56.24832 0 23.29088 5.48864 42.03008 16.48128 56.25344 10.9824 14.208 26.37824 21.30432 46.208 21.30432 14.08 0 26.79808-4.9408 38.1696-14.8736 11.32032-9.90208 18.31936-23.33184 20.9408-40.28928l-61.97248 0 0-35.84 100.32128 0 0 121.10336-37.26848 0L635.82208 393.80992zM359.23968 380.54912c15.52384 0 27.45344-4.352 35.84-13.08672 8.35584-8.71424 15.26784-22.60992 20.76672-41.73312l40.48896 0c-8.13568 28.672-19.09248 51.23584-32.95744 67.712-13.8496 16.49152-35.83488 24.71936-65.92512 24.71936-30.08512 0-53.632-9.9584-70.57408-29.9008-16.96768-19.94752-25.43616-47.65184-25.43616-83.1232 0-35.456 9.00608-63.4624 27.0336-84.01408 18.03776-20.54144 42.34752-30.81216 72.9088-30.81216 44.43136 0 74.28608 26.2912 89.5744 78.82752l-38.3488 0c-10.73664-27.96032-27.82208-41.92768-51.2256-41.92768-18.86208 0-34.0224 6.6304-45.49632 19.8912s-17.19296 31.71328-17.19296 55.36256C298.7008 354.51392 318.86848 380.54912 359.23968 380.54912zM743.3216 549.42208 280.6784 549.42208 280.6784 488.76032l462.63808 0L743.31648 549.42208zM743.3216 692.00896 280.6784 692.00896l0-60.67712 462.63808 0L743.31648 692.00896z" p-id="6582" fill="#1296db"></path></svg>